<?xml version="1.0" encoding="UTF-8" standalone="no"?>
<!-- Created with Inkscape (http://www.inkscape.org/) -->

<svg
   xmlns:dc="http://purl.org/dc/elements/1.1/"
   xmlns:cc="http://creativecommons.org/ns#"
   xmlns:rdf="http://www.w3.org/1999/02/22-rdf-syntax-ns#"
   xmlns:svg="http://www.w3.org/2000/svg"
   xmlns="http://www.w3.org/2000/svg"
   xmlns:sodipodi="http://sodipodi.sourceforge.net/DTD/sodipodi-0.dtd"
   xmlns:inkscape="http://www.inkscape.org/namespaces/inkscape"
   width="100"
   height="100"
   id="svg4164"
   version="1.1"
   inkscape:version="0.48.5 r10040"
   sodipodi:docname="icono-redminka.svg">
  <defs
     id="defs4166" />
  <sodipodi:namedview
     id="base"
     pagecolor="#ffffff"
     bordercolor="#666666"
     borderopacity="1.0"
     inkscape:pageopacity="0.0"
     inkscape:pageshadow="2"
     inkscape:zoom="2.5902439"
     inkscape:cx="185.91502"
     inkscape:cy="32.733208"
     inkscape:document-units="px"
     inkscape:current-layer="g3785"
     showgrid="false"
     borderlayer="true"
     inkscape:showpageshadow="false"
     fit-margin-top="0"
     fit-margin-left="0"
     fit-margin-right="0"
     fit-margin-bottom="0"
     inkscape:window-width="1366"
     inkscape:window-height="705"
     inkscape:window-x="0"
     inkscape:window-y="27"
     inkscape:window-maximized="1"
     inkscape:snap-page="true" />
  <metadata
     id="metadata4169">
    <rdf:RDF>
      <cc:Work
         rdf:about="">
        <dc:format>image/svg+xml</dc:format>
        <dc:type
           rdf:resource="http://purl.org/dc/dcmitype/StillImage" />
        <dc:title />
      </cc:Work>
    </rdf:RDF>
  </metadata>
  <g
     inkscape:label="Capa 1"
     inkscape:groupmode="layer"
     id="layer1"
     transform="translate(4655.6135,-3385.5705)">
    <g
       id="g3785"
       transform="translate(-5.9569,-137.3807)">
      <path
         style="fill:#333333;fill-opacity:1;fill-rule:evenodd"
         d="m -4649.6566,3522.9512 0,100 100,0 0,-100 -100,0 z"
         id="path2990" />
      <path
         style="fill:#ffffff;fill-opacity:1;fill-rule:evenodd"
         d="m -4627.6253,3550.045 c 0.1363,0.082 0.2699,0.1666 0.4062,0.25 1.7022,1.0403 3.3916,2.0846 5.0938,3.125 0.1711,0.1052 0.36,0.2078 0.5312,0.3125 -0.1167,0.1632 -0.227,0.3368 -0.3437,0.5 -1.8584,2.5994 -3.3829,5.5349 -4.5313,8.8125 -1.145,3.2678 -1.7187,6.7078 -1.7187,10.3125 0,3.6046 0.5737,7.0446 1.7187,10.3125 1.1484,3.2775 2.6729,6.2131 4.5313,8.8125 0.1167,0.163 0.227,0.3366 0.3437,0.5 -0.1712,0.1051 -0.3601,0.2078 -0.5312,0.3125 -1.7022,1.0405 -3.3916,2.0846 -5.0938,3.125 -0.1363,0.082 -0.2699,0.1668 -0.4062,0.25 -0.1033,-0.1218 -0.2091,-0.2534 -0.3125,-0.375 -2.6577,-3.1293 -4.7174,-6.6462 -6.1563,-10.5313 -1.4393,-3.8864 -2.1562,-8.0179 -2.1562,-12.4062 0,-4.3883 0.7169,-8.5199 2.1562,-12.4063 1.4389,-3.8854 3.4986,-7.4023 6.1563,-10.5312 0.1034,-0.1218 0.2092,-0.2533 0.3125,-0.375 z"
         id="path2988" />
      <path
         style="fill:#ffffff;fill-opacity:1;fill-rule:evenodd"
         d="m -4571.6878,3550.045 c 0.1032,0.1217 0.2091,0.2532 0.3125,0.375 2.6576,3.1289 4.7173,6.6458 6.1562,10.5312 1.4393,3.8864 2.1563,8.018 2.1563,12.4063 0,4.3883 -0.717,8.5197 -2.1563,12.4062 -1.4389,3.8852 -3.4986,7.402 -6.1562,10.5313 -0.1034,0.1216 -0.2093,0.2532 -0.3125,0.375 -0.1364,-0.083 -0.2701,-0.1681 -0.4063,-0.25 -1.7023,-1.0404 -3.3916,-2.0845 -5.0937,-3.125 -0.1712,-0.1047 -0.3601,-0.2074 -0.5313,-0.3125 0.1167,-0.1634 0.2271,-0.337 0.3438,-0.5 1.8585,-2.5994 3.3828,-5.535 4.5312,-8.8125 1.145,-3.2679 1.7188,-6.7079 1.7188,-10.3125 0,-3.6047 -0.5738,-7.0447 -1.7188,-10.3125 -1.1484,-3.2776 -2.6727,-6.2131 -4.5312,-8.8125 -0.1167,-0.1632 -0.2271,-0.3368 -0.3438,-0.5 0.1712,-0.1047 0.3601,-0.2073 0.5313,-0.3125 1.7021,-1.0404 3.3914,-2.0847 5.0937,-3.125 0.1362,-0.083 0.2699,-0.1681 0.4063,-0.25 z"
         id="path2986" />
      <path
         style="fill:#ffffff;fill-opacity:1;fill-rule:evenodd"
         d="m -4595.5941,3558.7012 c 0.428,0 0.9248,0.04 1.5313,0.094 0.6064,0.054 1.2359,0.1287 1.8437,0.2187 0.6077,0.089 1.206,0.1877 1.8125,0.3125 0.6065,0.1247 1.1345,0.2589 1.5625,0.4375 -0.4464,2.1987 -0.8975,4.3953 -1.3437,6.5938 -0.7143,-0.1783 -1.5677,-0.3657 -2.5313,-0.5625 -0.9636,-0.1953 -1.9883,-0.2813 -3.0937,-0.2813 -0.499,0 -1.0856,0.037 -1.7813,0.125 -0.6959,0.089 -1.2366,0.2041 -1.5937,0.3125 l 0,21.4063 -7.9688,0 0,-26.5625 c 1.4282,-0.4989 3.117,-0.96 5.0625,-1.4063 1.9456,-0.4463 4.1081,-0.6875 6.5,-0.6875 z"
         id="path3004" />
    </g>
  </g>
</svg>
